<svg xmlns="http://www.w3.org/2000/svg" width="40" height="41" viewBox="0 0 40 41" fill="none">
  <g clip-path="url(#clip0_356_229)">
    <mask id="mask0_356_229" style="mask-type:luminance" maskUnits="userSpaceOnUse" x="0" y="1" width="40" height="40">
      <path d="M39.4106 1.17493H0.410645V40.1749H39.4106V1.17493Z" fill="white"/>
    </mask>
    <g mask="url(#mask0_356_229)">
      <path d="M14.1068 31.7509L8.28853 34.9247C7.9471 35.1108 7.64025 35.3398 7.35474 35.5892C10.747 38.4495 15.126 40.175 19.9105 40.175C24.6597 40.175 29.0107 38.4752 32.3934 35.654C32.0814 35.3905 31.7429 35.1535 31.3677 34.9667L25.1372 31.8517C24.3322 31.4492 23.8237 30.6266 23.8237 29.7267V27.2822C23.9989 27.0828 24.199 26.8267 24.4131 26.5243C25.2623 25.3249 25.9047 24.0054 26.3499 22.6213C27.149 22.3748 27.7377 21.6368 27.7377 20.7596V18.1502C27.7377 17.5763 27.4824 17.0634 27.0857 16.7043V12.9324C27.0857 12.9324 27.8606 7.0625 19.9112 7.0625C11.9618 7.0625 12.7367 12.9324 12.7367 12.9324V16.7043C12.3393 17.0634 12.0847 17.5763 12.0847 18.1502V20.7596C12.0847 21.4468 12.446 22.0517 12.9869 22.4012C13.6388 25.2394 15.346 27.2822 15.346 27.2822V29.6663C15.3453 30.5346 14.8699 31.3344 14.1068 31.7509Z" fill="#E7ECED"/>
      <path d="M20.2439 1.17783C9.47626 0.993869 0.597513 9.57387 0.41355 20.3415C0.30906 26.4469 3.03022 31.9341 7.3629 35.5832C7.64621 35.3359 7.95011 35.1093 8.28787 34.9253L14.1062 31.7516C14.8693 31.3351 15.3446 30.5352 15.3446 29.6655V27.2813C15.3446 27.2813 13.6367 25.2386 12.9855 22.4004C12.4454 22.0509 12.0833 21.4468 12.0833 20.7588V18.1494C12.0833 17.5755 12.3387 17.0626 12.7353 16.7035V12.9315C12.7353 12.9315 11.9604 7.06168 19.9098 7.06168C27.8592 7.06168 27.0844 12.9315 27.0844 12.9315V16.7035C27.4817 17.0626 27.7363 17.5755 27.7363 18.1494V20.7588C27.7363 21.6359 27.1476 22.3739 26.3485 22.6204C25.9033 24.0046 25.2609 25.324 24.4118 26.5234C24.1976 26.8258 23.9975 27.0819 23.8223 27.2813V29.7258C23.8223 30.6258 24.3308 31.4492 25.1358 31.8509L31.3663 34.9658C31.7401 35.1527 32.0778 35.3889 32.3891 35.6516C36.5908 32.1475 39.3053 26.9082 39.4061 21.0082C39.5916 10.2406 31.0123 1.36179 20.2439 1.17783Z" fill="#434555"/>
    </g>
  </g>
  <defs>
    <clipPath id="clip0_356_229">
      <rect width="39" height="40" fill="white" transform="translate(0.410645 0.962891)"/>
    </clipPath>
  </defs>
</svg>