<svg width="41" height="51" viewBox="0 0 41 51" fill="none" xmlns="http://www.w3.org/2000/svg">
<g id="full_battery_status_8wtqanmzssdp 2">
<g id="Group">
<g id="Group_2">
<g id="Vector" filter="url(#filter0_d_356_329)">
<path d="M32.5763 21.1772H31.514C30.9628 18.714 29.1701 16.9226 27.0414 16.9226H9.78054C7.21486 16.9226 5.13477 19.5236 5.13477 22.7308V28.411C5.13477 31.6181 7.21486 34.2191 9.78054 34.2191H27.0414C29.1779 34.2191 30.9765 32.4269 31.5192 29.9645H32.5763C33.9845 29.9645 35.1341 28.534 35.1341 26.7721V24.3409C35.1361 22.5807 33.9858 21.1772 32.5763 21.1772ZM29.1353 28.3864C29.1353 29.8144 28.2094 30.971 27.067 30.971H9.79957C8.65781 30.971 7.73128 29.8144 7.73128 28.3864V22.6988C7.73128 21.2707 8.65781 20.1134 9.79957 20.1134H27.0663C28.2088 20.1134 29.1346 21.2707 29.1346 22.6988L29.1353 28.3864Z" fill="#75F530"/>
</g>
<path id="Vector_2" d="M13.6147 21.6816H10.0858C9.66255 21.6816 9.32068 22.1089 9.32068 22.638V28.5036C9.32068 29.0326 9.66255 29.4608 10.0858 29.4608H13.6147C14.038 29.4608 14.3798 29.0326 14.3798 28.5036V22.638C14.3798 22.1089 14.038 21.6816 13.6147 21.6816Z" fill="#75F530"/>
<path id="Vector_3" d="M20.1481 21.6816H16.6198C16.1966 21.6816 15.8547 22.1089 15.8547 22.638V28.5036C15.8547 29.0326 16.1966 29.4608 16.6198 29.4608H20.1481C20.572 29.4608 20.9146 29.0326 20.9146 28.5036V22.638C20.9146 22.1089 20.5714 21.6816 20.1481 21.6816Z" fill="#75F530"/>
<path id="Vector_4" d="M26.8983 21.682H23.3699C22.9466 21.682 22.6047 22.1094 22.6047 22.6385V28.5047C22.6047 29.0338 22.9466 29.462 23.3699 29.462H26.8983C27.3222 29.462 27.6647 29.0338 27.6647 28.5047V22.6385C27.6647 22.1094 27.3215 21.682 26.8983 21.682Z" fill="#75F530"/>
</g>
</g>
</g>
<defs>
<filter id="filter0_d_356_329" x="1.13477" y="16.9226" width="37.9994" height="25.2965" filterUnits="userSpaceOnUse" color-interpolation-filters="sRGB">
<feFlood flood-opacity="0" result="BackgroundImageFix"/>
<feColorMatrix in="SourceAlpha" type="matrix" values="0 0 0 0 0 0 0 0 0 0 0 0 0 0 0 0 0 0 127 0" result="hardAlpha"/>
<feOffset dy="4"/>
<feGaussianBlur stdDeviation="2"/>
<feComposite in2="hardAlpha" operator="out"/>
<feColorMatrix type="matrix" values="0 0 0 0 0 0 0 0 0 0 0 0 0 0 0 0 0 0 0.25 0"/>
<feBlend mode="normal" in2="BackgroundImageFix" result="effect1_dropShadow_356_329"/>
<feBlend mode="normal" in="SourceGraphic" in2="effect1_dropShadow_356_329" result="shape"/>
</filter>
</defs>
</svg>
